<svg width="147" height="73" viewBox="0 0 147 73" fill="none" xmlns="http://www.w3.org/2000/svg">
<path d="M49.21 72.38C48.42 72.38 47.93 71.89 47.93 71.1V1.29001C47.93 0.500009 48.43 0.0100098 49.21 0.0100098H71.1C91.12 0.0100098 99.8 8.88001 99.8 25.25C99.8 34.12 96.45 41.62 89.25 46.15L102.76 70.8C103.26 71.69 102.86 72.38 101.87 72.38H89.74C89.05 72.38 88.56 72.08 88.26 71.49L76.62 50.19C74.85 50.39 73.07 50.49 71.1 50.49H61.24V71.1C61.24 71.89 60.75 72.38 59.96 72.38H49.21ZM61.23 12.33V38.16H70.6C81.05 38.16 85.98 34.31 85.98 25.24C85.98 16.17 81.05 12.32 70.6 12.32H61.23V12.33Z" fill="white"/>
<path d="M14.09 0V22.1C14.09 36.19 0 36.19 0 36.19C0 36.19 14.09 36.19 14.09 50.28V72.38H28.18V43.24C28.18 36.2 21.14 36.2 21.14 36.2C21.14 36.2 28.18 36.2 28.18 29.16V0H14.09Z" fill="#F15B2A"/>
<path d="M132.1 0V22.1C132.1 36.19 146.19 36.19 146.19 36.19C146.19 36.19 132.1 36.19 132.1 50.28V72.38H118.01V43.24C118.01 36.2 125.05 36.2 125.05 36.2C125.05 36.2 118.01 36.2 118.01 29.16V0H132.1Z" fill="#F15B2A"/>
</svg>
